<?xml version="1.0" standalone="no"?>
<!DOCTYPE svg PUBLIC "-//W3C//DTD SVG 20010904//EN"
 "http://www.w3.org/TR/2001/REC-SVG-20010904/DTD/svg10.dtd">
<svg version="1.0" xmlns="http://www.w3.org/2000/svg"
 width="340.000000pt" height="340.000000pt" viewBox="0 0 340.000000 340.000000"
 preserveAspectRatio="xMidYMid meet">
<metadata>
Created by potrace 1.11, written by Peter Selinger 2001-2013
</metadata>
<g transform="translate(0.000000,340.000000) scale(0.100000,-0.100000)"
fill="#000000" stroke="none">
<path d="M1500 3180 c-352 -29 -570 -80 -660 -157 -101 -86 -156 -285 -181
-643 -23 -345 -2 -627 66 -877 150 -551 507 -1107 804 -1255 172 -86 342 -29
546 184 159 164 286 351 410 603 85 174 129 283 180 450 61 201 77 316 82 602
8 391 -21 606 -103 771 -83 164 -239 259 -504 307 -111 20 -475 28 -640 15z
m537 -61 c208 -23 371 -82 465 -168 152 -140 195 -333 185 -843 -8 -408 -18
-449 -138 -540 -78 -58 -134 -73 -281 -73 -142 0 -146 -8 -14 -24 49 -6 91
-13 94 -16 11 -10 -25 -62 -89 -127 -72 -74 -179 -133 -262 -144 -42 -6 -44
-5 -100 51 -63 64 -50 62 -137 14 -57 -31 -146 -22 -176 19 -19 24 -17 116 3
224 14 73 17 149 17 354 l0 261 -29 59 c-42 82 -150 187 -255 247 -106 59
-203 91 -231 76 -11 -6 -18 -16 -16 -22 2 -7 49 -30 105 -53 148 -60 227 -128
285 -244 32 -64 32 -65 35 -240 5 -225 0 -245 -83 -325 -89 -86 -106 -155 -53
-212 26 -28 38 -21 38 20 0 59 59 129 81 96 10 -15 7 -113 -5 -140 -7 -16 12
-43 35 -51 23 -8 -10 -77 -44 -94 -69 -36 -242 21 -349 116 -42 36 -88 109
-88 137 0 6 35 12 88 15 48 3 102 11 120 19 31 13 22 14 -115 14 -227 0 -265
23 -360 214 l-48 96 1 305 c1 322 13 464 54 623 21 85 60 169 93 205 63 67
296 125 612 151 150 12 453 12 562 0z m-1177 -1663 c45 -82 108 -189 140 -236
33 -48 111 -186 175 -306 130 -245 152 -278 129 -193 -8 30 -16 89 -19 132 -4
75 -3 77 19 77 13 0 41 -7 62 -17 22 -9 73 -26 114 -38 62 -18 79 -28 98 -55
29 -43 30 -112 2 -158 -24 -40 -26 -105 -4 -187 28 -106 42 -195 32 -195 -6 0
-38 14 -72 32 -99 52 -272 233 -385 402 -169 254 -335 631 -386 876 -11 53 4
32 95 -134z m1716 -48 c-144 -426 -401 -836 -642 -1028 -65 -52 -160 -108
-168 -99 -8 10 16 166 34 216 25 73 25 79 -6 147 -33 72 -27 122 22 176 l34
37 -31 7 c-17 3 -84 6 -148 6 -132 0 -186 12 -296 67 -204 102 -368 281 -439
478 -14 39 -20 62 -13 52 6 -11 34 -53 61 -95 72 -112 184 -219 276 -264 81
-40 181 -68 246 -68 38 0 43 4 98 70 32 40 65 70 75 70 16 0 131 -118 131
-134 0 -3 -56 -6 -125 -6 -77 0 -125 -4 -125 -10 0 -16 343 -12 424 5 109 23
210 79 293 161 58 59 81 91 123 178 55 112 65 125 83 107 17 -17 -9 -109 -51
-181 -20 -35 -73 -102 -117 -149 -44 -46 -72 -82 -62 -78 9 4 24 10 34 14 9 3
14 2 11 -3 -18 -32 -130 -229 -158 -278 -66 -117 -8 -41 154 202 170 256 272
428 303 515 10 27 19 43 21 34 2 -9 -17 -76 -42 -149z"/>
<path d="M1106 2590 c-78 -14 -169 -64 -220 -121 -50 -55 -60 -80 -23 -57 184
117 323 140 454 77 23 -11 77 -47 119 -80 87 -67 118 -79 142 -55 15 14 14 19
-14 58 -41 59 -137 134 -203 158 -62 24 -183 33 -255 20z"/>
<path d="M2101 2575 c-30 -9 -70 -25 -90 -37 -50 -31 -140 -117 -158 -152 -13
-25 -13 -30 0 -43 21 -21 45 -11 135 57 144 108 215 132 332 111 68 -12 185
-62 241 -102 52 -37 32 2 -34 67 -82 80 -146 105 -277 110 -65 3 -112 -1 -149
-11z"/>
<path d="M2188 2466 c-25 -7 -72 -28 -103 -47 -86 -51 -204 -188 -221 -254 -6
-25 5 -18 89 58 113 102 181 148 300 202 48 22 87 43 87 48 0 11 -100 7 -152
-7z"/>
<path d="M2220 2174 c-8 -3 -44 -14 -80 -26 -82 -26 -178 -76 -191 -100 -6
-12 -6 -25 1 -37 15 -29 94 -35 335 -26 116 5 247 9 292 9 45 1 81 2 80 3 -1
1 -33 13 -71 27 -48 18 -85 42 -125 79 -34 31 -74 58 -98 65 -40 12 -114 15
-143 6z"/>
<path d="M1015 2147 c-27 -14 -68 -43 -90 -66 -29 -31 -47 -41 -70 -41 -41 0
-49 -9 -28 -32 14 -16 15 -24 6 -49 -13 -33 -14 -33 24 -18 18 8 89 11 203 10
305 -4 439 36 396 120 -28 56 -122 87 -286 95 -97 5 -109 3 -155 -19z"/>
<path d="M1900 1555 c0 -9 12 -21 26 -27 14 -7 39 -35 55 -63 32 -56 39 -42
10 21 -26 58 -91 107 -91 69z"/>
</g>
</svg>
